<?xml version="1.0" encoding="UTF-8" standalone="no"?>
<!DOCTYPE svg PUBLIC "-//W3C//DTD SVG 1.1//EN" "http://www.w3.org/Graphics/SVG/1.1/DTD/svg11.dtd">
<svg width="100%" height="100%" viewBox="0 0 2527 1778" version="1.1" xmlns="http://www.w3.org/2000/svg" xmlns:xlink="http://www.w3.org/1999/xlink" xml:space="preserve" xmlns:serif="http://www.serif.com/" style="fill-rule:evenodd;clip-rule:evenodd;stroke-linecap:round;stroke-linejoin:round;stroke-miterlimit:1.5;">
    <g transform="matrix(1,0,0,1,-13.916667,-27.040021)">
        <g transform="matrix(1,0,0,1,-1440,-773)">
            <g transform="matrix(1,0,0,1,-0,-1)">
                <path d="M2434,1369L2526,1369" style="fill:none;stroke:rgb(192,50,50);stroke-width:2.08px;"/>
            </g>
        </g>
        <g transform="matrix(1,0,0,1,-1440,-773)">
            <path d="M2471.643,1351.736C2473.803,1356.724 2475,1362.223 2475,1368C2475,1370.01 2474.855,1371.987 2474.575,1373.92" style="fill:none;stroke:rgb(192,50,50);stroke-width:2.08px;"/>
        </g>
        <g transform="matrix(1,0,0,1,-1440,-773)">
            <g transform="matrix(1.140416,-0.04501,-0.035038,1.011396,-152.545618,47.629921)">
                <path d="M1495.342,1638.78L2783,1275" style="fill:none;stroke:rgb(192,50,50);stroke-width:2.01px;"/>
            </g>
        </g>
        <g transform="matrix(1,0,0,1,-1440,-773)">
            <g transform="matrix(0.999998,-0.002102,0.002102,0.999998,-3.43869,3.146269)">
                <path d="M1495.346,1637.78L2764,1357" style="fill:none;stroke:rgb(192,50,50);stroke-width:2.08px;"/>
            </g>
        </g>
        <g transform="matrix(1,0,0,1,-1440,-773)">
            <g transform="matrix(0.999997,-0.0024,0.0024,0.999997,-3.926424,3.593603)">
                <path d="M1495.346,1637.78L2820,1417" style="fill:none;stroke:rgb(192,50,50);stroke-width:2.08px;"/>
            </g>
        </g>
        <g transform="matrix(1,0,0,1,-1440,-773)">
            <path d="M1495.346,1637.78L2786,1493" style="fill:none;stroke:rgb(192,50,50);stroke-width:2.08px;"/>
        </g>
        <g transform="matrix(1,0,0,1,-1440,-773)">
            <path d="M1495.346,1637.78L2837,1563" style="fill:none;stroke:rgb(192,50,50);stroke-width:2.08px;"/>
        </g>
        <g transform="matrix(1,0,0,1,-1440,-773)">
            <g transform="matrix(1.140416,0.04501,-0.035038,-1.011396,-152.545618,3227.929134)">
                <path d="M1495.342,1638.78L2783,1275" style="fill:none;stroke:rgb(192,50,50);stroke-width:2.01px;"/>
            </g>
        </g>
        <g transform="matrix(1,0,0,1,-1440,-773)">
            <g transform="matrix(0.999998,0.002102,0.002102,-0.999998,-3.43869,3272.412786)">
                <path d="M1495.346,1637.78L2764,1357" style="fill:none;stroke:rgb(192,50,50);stroke-width:2.08px;"/>
            </g>
        </g>
        <g transform="matrix(1,0,0,1,-1440,-773)">
            <g transform="matrix(0.999997,0.0024,0.0024,-0.999997,-3.926424,3271.965452)">
                <path d="M1495.346,1637.78L2820,1417" style="fill:none;stroke:rgb(192,50,50);stroke-width:2.08px;"/>
            </g>
        </g>
        <g transform="matrix(1,0,0,1,-1440,-773)">
            <g transform="matrix(1,0,0,-1,0,3275.559055)">
                <path d="M1495.346,1637.78L2786,1493" style="fill:none;stroke:rgb(192,50,50);stroke-width:2.08px;"/>
            </g>
        </g>
        <g transform="matrix(1,0,0,1,-1440,-773)">
            <g transform="matrix(1,0,0,-1,0,3275.559055)">
                <path d="M1495.346,1637.78L2837,1563" style="fill:none;stroke:rgb(192,50,50);stroke-width:2.08px;"/>
            </g>
        </g>
        <g transform="matrix(1,0,0,1,-1440,-773)">
            <g transform="matrix(1.140085,0,0,1,-209.475382,0)">
                <path d="M1495.346,1637.78L2794.559,1637.78" style="fill:none;stroke:rgb(192,50,50);stroke-width:1.94px;"/>
            </g>
        </g>
        <g transform="matrix(1,0,0,1,-1440,-773)">
            <g transform="matrix(1,0,0,1,450,0)">
                <path d="M3424,1047.228L3528,1047.228" style="fill:none;stroke:black;stroke-width:4.17px;"/>
            </g>
        </g>
        <g transform="matrix(1,0,0,1,-1440,-773)">
            <g transform="matrix(1,0,0,1,450,1181.102362)">
                <path d="M3424,1047.228L3528,1047.228" style="fill:none;stroke:black;stroke-width:4.17px;"/>
            </g>
        </g>
        <g transform="matrix(1,0,0,1,-1440,-773)">
            <g transform="matrix(0,1,-1,0,3701.228346,-1056.669291)">
                <path d="M3424,1047.228L3528,1047.228" style="fill:none;stroke:black;stroke-width:4.17px;"/>
            </g>
        </g>
        <g transform="matrix(1,0,0,1,-1440,-773)">
            <g transform="matrix(0,1,-1,0,3664.362205,-2621.876645)">
                <path d="M3424,1047.228L3528,1047.228" style="fill:none;stroke:black;stroke-width:4.17px;"/>
            </g>
        </g>
        <g transform="matrix(1,0,0,1,-1440,-773)">
            <g transform="matrix(0,1,-1,0,2542.574803,-1056.669291)">
                <path d="M3424,1047.228L3528,1047.228" style="fill:none;stroke:black;stroke-width:4.17px;"/>
            </g>
        </g>
        <g transform="matrix(1,0,0,1,-1440,-773)">
            <g transform="matrix(0,1,-1,0,2542.574803,-952.669291)">
                <path d="M3424,1047.228L3528,1047.228" style="fill:none;stroke:black;stroke-width:4.17px;"/>
            </g>
        </g>
        <g transform="matrix(1,0,0,1,-1440,-773)">
            <g transform="matrix(0,1,-1,0,3825.228346,-1056.669291)">
                <path d="M3424,1047.228L3528,1047.228" style="fill:none;stroke:black;stroke-width:4.17px;"/>
            </g>
        </g>
        <g transform="matrix(1,0,0,1,-1440,-773)">
            <g transform="matrix(0,1,-1,0,3843.51257,-1056.669291)">
                <path d="M3424,1047.228L3528,1047.228" style="fill:none;stroke:black;stroke-width:4.17px;"/>
            </g>
        </g>
        <g transform="matrix(1,0,0,1,-1440,-773)">
            <g transform="matrix(0,1,-1,0,3843.51257,-2621.876645)">
                <path d="M3424,1047.228L3528,1047.228" style="fill:none;stroke:black;stroke-width:4.17px;"/>
            </g>
        </g>
        <g transform="matrix(1,0,0,1,-1440,-773)">
            <g transform="matrix(0,1,-1,0,3843.51257,-952.669291)">
                <path d="M3424,1047.228L3528,1047.228" style="fill:none;stroke:black;stroke-width:4.17px;"/>
            </g>
        </g>
        <g transform="matrix(1,0,0,1,-1440,-773)">
            <g transform="matrix(0,1,-1,0,4732.228346,-1056.669291)">
                <path d="M3424,1047.228L3528,1047.228" style="fill:none;stroke:black;stroke-width:4.17px;"/>
            </g>
        </g>
        <g transform="matrix(1,0,0,1,-1440,-773)">
            <g transform="matrix(0,1,-1,0,4768.228346,-1056.669291)">
                <path d="M3424,1047.228L3528,1047.228" style="fill:none;stroke:black;stroke-width:4.17px;"/>
            </g>
        </g>
        <g transform="matrix(1,0,0,1,-1440,-773)">
            <g transform="matrix(0,1,-1,0,4431.228346,-1056.669291)">
                <path d="M3424,1047.228L3528,1047.228" style="fill:none;stroke:black;stroke-width:4.17px;"/>
            </g>
        </g>
        <g transform="matrix(1,0,0,1,-1440,-773)">
            <g transform="matrix(1,0,0,1,450,0)">
                <path d="M3476,2264L3476,1015" style="fill:none;stroke:black;stroke-width:4.17px;"/>
            </g>
        </g>
        <g transform="matrix(1,0,0,1,-1440,-773)">
            <g transform="matrix(0,-1,1,0,2447.854602,4917.769382)">
                <g transform="matrix(50,0,0,50,3318.454929,1458.082898)">
                </g>
                <text x="3235.032px" y="1458.083px" style="font-family:'ArialMT', 'Arial', sans-serif;font-size:50px;">100</text>
            </g>
        </g>
        <g transform="matrix(1,0,0,1,-1440,-773)">
            <g transform="matrix(7.246073,0,0,1,-17514.219895,-90)">
                <path d="M2618,2509.331L2809,2509.331" style="fill:none;stroke:black;stroke-width:0.81px;"/>
            </g>
        </g>
        <g transform="matrix(1,0,0,1,-1440,-773)">
            <g transform="matrix(7.246073,0,0,1,-17514.219895,14)">
                <path d="M2618,2509.331L2809,2509.331" style="fill:none;stroke:black;stroke-width:0.81px;"/>
            </g>
        </g>
        <g transform="matrix(1,0,0,1,-1440,-773)">
            <g transform="matrix(2.17801,0,0,1,-2355.031414,-90)">
                <path d="M2618,2509.331L2809,2509.331" style="fill:none;stroke:black;stroke-width:2.46px;"/>
            </g>
        </g>
        <g transform="matrix(1,0,0,1,-1440,-773)">
            <g transform="matrix(1,0,0,1,-217.32435,-137.994958)">
                <g transform="matrix(50,0,0,50,2977.760385,2539.263167)">
                </g>
                <text x="2880.446px" y="2539.263px" style="font-family:'ArialMT', 'Arial', sans-serif;font-size:50px;">10,5</text>
            </g>
        </g>
        <g transform="matrix(1,0,0,1,-1440,-773)">
            <g transform="matrix(1,0,0,1,-234.32435,-1701.202313)">
                <g transform="matrix(50,0,0,50,2993.068002,2539.263167)">
                </g>
                <text x="2880.446px" y="2539.263px" style="font-family:'ArialMT', 'Arial', sans-serif;font-size:50px;">a=15</text>
            </g>
        </g>
        <g transform="matrix(1,0,0,1,-1440,-773)">
            <g transform="matrix(1,0,0,1,-737.890268,-28.012536)">
                <g transform="matrix(50,0,0,50,2960.157846,2539.263167)">
                </g>
                <text x="2880.446px" y="2539.263px" style="font-family:'ArialMT', 'Arial', sans-serif;font-size:50px;">1<tspan x="2904.543px 2932.35px " y="2539.263px 2539.263px ">10</tspan></text>
            </g>
        </g>
        <g transform="matrix(1,0,0,1,-1440,-773)">
            <g transform="matrix(1,0,0,1,-785.863901,-135.994958)">
                <g transform="matrix(50,0,0,50,2936.061166,2539.263167)">
                </g>
                <text x="2880.446px" y="2539.263px" style="font-family:'ArialMT', 'Arial', sans-serif;font-size:50px;">98</text>
            </g>
        </g>
        <g transform="matrix(1,0,0,1,-1440,-773)">
            <g transform="matrix(1,0,0,1,-72.32435,-137.994958)">
                <g transform="matrix(50,0,0,50,2949.952768,2539.263167)">
                </g>
                <text x="2880.446px" y="2539.263px" style="font-family:'ArialMT', 'Arial', sans-serif;font-size:50px;">1,5</text>
            </g>
        </g>
        <g transform="matrix(1,0,0,1,-1440,-773)">
            <g transform="matrix(1,0,0,1,627.36941,-137.994958)">
                <g transform="matrix(50,0,0,50,2936.061166,2539.263167)">
                </g>
                <text x="2880.446px" y="2539.263px" style="font-family:'ArialMT', 'Arial', sans-serif;font-size:50px;">28</text>
            </g>
        </g>
        <g transform="matrix(1,0,0,1,-1440,-773)">
            <g transform="matrix(1,0,0,1,567.36941,-1533.994958)">
                <g transform="matrix(50,0,0,50,3066.603159,2539.263167)">
                </g>
                <text x="2880.446px" y="2539.263px" style="font-family:'ArialMT', 'Arial', sans-serif;font-size:50px;">10 kN/m</text>
            </g>
        </g>
        <g transform="matrix(1,0,0,1,-1440,-773)">
            <g transform="matrix(1,0,0,1,869.36941,-137.994958)">
                <g transform="matrix(50,0,0,50,2908.253549,2539.263167)">
                </g>
                <text x="2880.446px" y="2539.263px" style="font-family:'ArialMT', 'Arial', sans-serif;font-size:50px;">2</text>
            </g>
        </g>
        <g transform="matrix(1,0,0,1,-1440,-773)">
            <path d="M3685,1047.228L3685,2228.331" style="fill:none;stroke:black;stroke-width:8.33px;"/>
        </g>
        <g transform="matrix(1,0,0,1,-1440,-773)">
            <g transform="matrix(1.44043,0,0,1,-1203.770891,0)">
                <path d="M3427.571,2228.331C3278.348,2081.264 3185,1871.8 3185,1639.5C3185,1405.382 3279.815,1194.459 3431.084,1047.228" style="fill:none;stroke:black;stroke-width:6.72px;"/>
            </g>
        </g>
        <g transform="matrix(1,0,0,1,-1440,-773)">
            <path d="M2582,854.123L2828,854.123" style="fill:none;stroke:black;stroke-width:4.17px;"/>
        </g>
        <g transform="matrix(1,0,0,1,-1440,-773)">
            <path d="M2625,1765L2786,1782.559" style="fill:none;stroke:black;stroke-width:4.17px;"/>
        </g>
        <g transform="matrix(1,0,0,1,-1440,-773)">
            <path d="M2620,1701L2837,1712.559" style="fill:none;stroke:black;stroke-width:4.17px;"/>
        </g>
        <g transform="matrix(1,0,0,1,-1440,-773)">
            <path d="M2795,1637.78L2620,1637.78" style="fill:none;stroke:black;stroke-width:4.17px;"/>
        </g>
        <g transform="matrix(1,0,0,1,-1440,-773)">
            <path d="M2633,1830L2819.466,1861.738" style="fill:none;stroke:black;stroke-width:4.17px;"/>
        </g>
        <g transform="matrix(1,0,0,1,-1440,-773)">
            <path d="M2646,1895L2763.407,1921.225" style="fill:none;stroke:black;stroke-width:4.17px;"/>
        </g>
        <g transform="matrix(1,0,0,1,-1440,-773)">
            <path d="M2668,1975L2781.305,2007.522" style="fill:none;stroke:black;stroke-width:4.17px;"/>
        </g>
        <g transform="matrix(1,0,0,1,-1440,-773)">
            <g transform="matrix(1,0,0,-1,0,3275.559055)">
                <path d="M2625,1765L2786,1782.559" style="fill:none;stroke:black;stroke-width:4.17px;"/>
            </g>
        </g>
        <g transform="matrix(1,0,0,1,-1440,-773)">
            <g transform="matrix(1,0,0,-1,0,3275.559055)">
                <path d="M2620,1701L2837,1712.559" style="fill:none;stroke:black;stroke-width:4.17px;"/>
            </g>
        </g>
        <g transform="matrix(1,0,0,1,-1440,-773)">
            <g transform="matrix(1,0,0,-1,0,3275.559055)">
                <path d="M2633,1830L2819.466,1861.738" style="fill:none;stroke:black;stroke-width:4.17px;"/>
            </g>
        </g>
        <g transform="matrix(1,0,0,1,-1440,-773)">
            <g transform="matrix(1,0,0,-1,0,3275.559055)">
                <path d="M2646,1895L2763.407,1921.225" style="fill:none;stroke:black;stroke-width:4.17px;"/>
            </g>
        </g>
        <g transform="matrix(1,0,0,1,-1440,-773)">
            <g transform="matrix(1,0,0,-1,0,3275.559055)">
                <path d="M2668,1975L2781.305,2007.522" style="fill:none;stroke:black;stroke-width:4.17px;"/>
            </g>
        </g>
        <g transform="matrix(1,0,0,1,-1440,-773)">
            <g transform="matrix(1,0,0,1,-276.835018,1719.395597)">
                <g transform="matrix(50,0,0,50,2831.915375,420.071915)">
                </g>
                <text x="2659.113px" y="420.072px" style="font-family:'ArialMT', 'Arial', sans-serif;font-size:50px;">R = 1<tspan x="2776.3px 2804.108px " y="420.072px 420.072px ">10</tspan></text>
            </g>
        </g>
        <g transform="matrix(1,0,0,1,-1440,-773)">
            <g transform="matrix(1,0,0,1,-226.676327,914.902425)">
                <g transform="matrix(50,0,0,50,2734.722993,420.071915)">
                </g>
                <text x="2659.113px" y="420.072px" style="font-family:'ArialMT', 'Arial', sans-serif;font-size:50px;">16°</text>
            </g>
        </g>
        <g transform="matrix(1,0,0,1,-1440,-773)">
            <g transform="matrix(1,-0,-0,1,1453.916667,800.040021)">
                <path d="M1229.414,1332.098L1235.623,1341.5L1224.556,1343.615" style="fill:none;stroke:black;stroke-width:4.17px;stroke-linejoin:miter;stroke-miterlimit:10;"/>
                <path d="M1081.697,1276.568C1081.697,1276.568 1212.532,1331.759 1235.623,1341.5" style="fill:none;stroke:black;stroke-width:4.17px;"/>
            </g>
        </g>
        <g transform="matrix(1,0,0,1,-1440,-773)">
            <g transform="matrix(5.905512,0,0,5.905512,-595.204724,-5301.19685)">
                <path d="M549.978,1075C565.335,1105.01 574,1139.001 574,1175C574,1210.999 565.335,1244.99 549.978,1275" style="fill:none;stroke:black;stroke-width:1.41px;"/>
            </g>
        </g>
        <g transform="matrix(1,0,0,1,-1440,-773)">
            <g transform="matrix(5.261274,0,0,5.261274,1912.123121,-4544.217609)">
                <path d="M164.788,1287.245C145.234,1254.375 134,1215.989 134,1175C134,1134.011 145.234,1095.625 164.788,1062.755" style="fill:none;stroke:black;stroke-width:1.58px;"/>
            </g>
        </g>
        <g transform="matrix(1,0,0,1,-1440,-773)">
            <path d="M3488,1300L3685,1268" style="fill:none;stroke:black;stroke-width:4.17px;"/>
        </g>
        <g transform="matrix(1,0,0,1,-1440,-773)">
            <path d="M3418,1445L3685,1413" style="fill:none;stroke:black;stroke-width:4.17px;"/>
        </g>
        <g transform="matrix(1,0,0,1,-1440,-773)">
            <path d="M3444,1379L3685,1359" style="fill:none;stroke:black;stroke-width:4.17px;"/>
        </g>
        <g transform="matrix(1,0,0,1,-1440,-773)">
            <path d="M3400,1510L3685,1495" style="fill:none;stroke:black;stroke-width:4.17px;"/>
        </g>
        <g transform="matrix(1,0,0,1,-1440,-773)">
            <path d="M3384,1574L3685,1563" style="fill:none;stroke:black;stroke-width:4.17px;"/>
        </g>
        <g transform="matrix(1,0,0,1,-1440,-773)">
            <path d="M3384,1637.78L3685,1637.78" style="fill:none;stroke:black;stroke-width:4.17px;"/>
        </g>
        <g transform="matrix(1,0,0,1,-1440,-773)">
            <g transform="matrix(1.44043,0,0,-1,-1203.770891,3275.559055)">
                <path d="M3427.571,2228.331C3278.348,2081.264 3185,1871.8 3185,1639.5C3185,1405.382 3279.815,1194.459 3431.084,1047.228" style="fill:none;stroke:black;stroke-width:6.72px;"/>
            </g>
        </g>
        <g transform="matrix(1,0,0,1,-1440,-773)">
            <g transform="matrix(1,0,0,-1,-0,3275.559055)">
                <path d="M3488,1300L3685,1268" style="fill:none;stroke:black;stroke-width:4.17px;"/>
            </g>
        </g>
        <g transform="matrix(1,0,0,1,-1440,-773)">
            <g transform="matrix(1,0,0,-1,-0,3275.559055)">
                <path d="M3418,1445L3685,1413" style="fill:none;stroke:black;stroke-width:4.17px;"/>
            </g>
        </g>
        <g transform="matrix(1,0,0,1,-1440,-773)">
            <g transform="matrix(1,0,0,-1,-0,3275.559055)">
                <path d="M3444,1379L3685,1359" style="fill:none;stroke:black;stroke-width:4.17px;"/>
            </g>
        </g>
        <g transform="matrix(1,0,0,1,-1440,-773)">
            <g transform="matrix(1,0,0,-1,-0,3275.559055)">
                <path d="M3400,1510L3685,1495" style="fill:none;stroke:black;stroke-width:4.17px;"/>
            </g>
        </g>
        <g transform="matrix(1,0,0,1,-1440,-773)">
            <g transform="matrix(1,0,0,-1,-0,3275.559055)">
                <path d="M3384,1574L3685,1563" style="fill:none;stroke:black;stroke-width:4.17px;"/>
            </g>
        </g>
        <g transform="matrix(1,0,0,1,-1440,-773)">
            <g transform="matrix(1,0,0,-1,-0,3275.559055)">
                <path d="M3384,1637.78L3685,1637.78" style="fill:none;stroke:black;stroke-width:4.17px;"/>
            </g>
        </g>
        <g transform="matrix(1,0,0,1,-1440,-773)">
            <g transform="matrix(1,0,0,2.050648,2.331267,-2473.419879)">
                <path d="M2794.559,2359.572L2794.559,1632.847" style="fill:none;stroke:rgb(192,50,50);stroke-width:1.29px;"/>
            </g>
        </g>
        <g transform="matrix(1,0,0,1,-1440,-773)">
            <g transform="matrix(1,0,0,1,-1299.212598,5.658518)">
                <path d="M2794.559,2359.572L2794.559,1632.847" style="fill:none;stroke:rgb(192,50,50);stroke-width:2.08px;"/>
            </g>
        </g>
        <g transform="matrix(1,0,0,1,-1440,-773)">
            <g transform="matrix(1,0,0,1,-15.668733,5.658518)">
                <path d="M2794.559,2359.572L2794.559,2175.522" style="fill:none;stroke:rgb(192,50,50);stroke-width:2.08px;"/>
            </g>
        </g>
        <g transform="matrix(1,0,0,1,-1440,-773)">
            <g transform="matrix(1,0,0,1,-141.86092,5.658518)">
                <path d="M2794.559,2359.572L2794.559,2175.522" style="fill:none;stroke:rgb(192,50,50);stroke-width:2.08px;"/>
            </g>
        </g>
        <g transform="matrix(1,0,0,1,-1440,-773)">
            <g transform="matrix(2.841891,0,0,4.36865,-5324.697293,-8629.116289)">
                <path d="M2794.559,2359.572L2794.559,2175.522" style="fill:none;stroke:rgb(192,50,50);stroke-width:0.57px;"/>
            </g>
        </g>
        <g transform="matrix(1,0,0,1,-1440,-773)">
            <g transform="matrix(1.787145,0,0,1.787145,-1694.250755,-987.884546)">
                <circle cx="2504.304" cy="1262.304" r="3.304" style="fill:white;stroke:black;stroke-width:0.47px;"/>
            </g>
        </g>
        <g transform="matrix(1,0,0,1,-1440,-773)">
            <g transform="matrix(1.787145,0,0,1.787145,-1746.250755,-895.681483)">
                <circle cx="2504.304" cy="1262.304" r="3.304" style="fill:white;stroke:black;stroke-width:0.47px;"/>
            </g>
        </g>
        <g transform="matrix(1,0,0,1,-1440,-773)">
            <g transform="matrix(1.787145,0,0,1.787145,-1654.250755,-841.681483)">
                <circle cx="2504.304" cy="1262.304" r="3.304" style="fill:white;stroke:black;stroke-width:0.47px;"/>
            </g>
        </g>
        <g transform="matrix(1,0,0,1,-1440,-773)">
            <g transform="matrix(1.787145,0,0,1.787145,-1722.959706,-760.047369)">
                <circle cx="2504.304" cy="1262.304" r="3.304" style="fill:white;stroke:black;stroke-width:0.47px;"/>
            </g>
        </g>
        <g transform="matrix(1,0,0,1,-1440,-773)">
            <g transform="matrix(1.787145,0,0,1.787145,-1637.148683,-693.047369)">
                <circle cx="2504.304" cy="1262.304" r="3.304" style="fill:white;stroke:black;stroke-width:0.47px;"/>
            </g>
        </g>
        <g transform="matrix(1,0,0,1,-1440,-773)">
            <g transform="matrix(1.787145,0,0,1.787145,-1717.054195,-618.141857)">
                <circle cx="2504.304" cy="1262.304" r="3.304" style="fill:white;stroke:black;stroke-width:0.47px;"/>
            </g>
        </g>
        <g transform="matrix(1,0,0,1,-1440,-773)">
            <g transform="matrix(1.787145,0,0,-1.787145,-1694.250755,4263.700913)">
                <circle cx="2504.304" cy="1262.304" r="3.304" style="fill:white;stroke:black;stroke-width:0.47px;"/>
            </g>
        </g>
        <g transform="matrix(1,0,0,1,-1440,-773)">
            <g transform="matrix(1.787145,0,0,-1.787145,-1746.250755,4171.497849)">
                <circle cx="2504.304" cy="1262.304" r="3.304" style="fill:white;stroke:black;stroke-width:0.47px;"/>
            </g>
        </g>
        <g transform="matrix(1,0,0,1,-1440,-773)">
            <g transform="matrix(1.787145,0,0,-1.787145,-1654.250755,4117.497849)">
                <circle cx="2504.304" cy="1262.304" r="3.304" style="fill:white;stroke:black;stroke-width:0.47px;"/>
            </g>
        </g>
        <g transform="matrix(1,0,0,1,-1440,-773)">
            <g transform="matrix(1.787145,0,0,-1.787145,-1722.959706,4035.863736)">
                <circle cx="2504.304" cy="1262.304" r="3.304" style="fill:white;stroke:black;stroke-width:0.47px;"/>
            </g>
        </g>
        <g transform="matrix(1,0,0,1,-1440,-773)">
            <g transform="matrix(1.787145,0,0,-1.787145,-1637.148683,3968.863736)">
                <circle cx="2504.304" cy="1262.304" r="3.304" style="fill:white;stroke:black;stroke-width:0.47px;"/>
            </g>
        </g>
        <g transform="matrix(1,0,0,1,-1440,-773)">
            <g transform="matrix(0.93183,0,0,0.655836,87.737602,365.098772)">
                <rect x="1658" y="1265" width="118" height="35" style="fill:white;stroke:black;stroke-width:7.76px;"/>
            </g>
        </g>
        <g transform="matrix(1,0,0,1,-1440,-773)">
            <g transform="matrix(2.591279,0,0,2.591279,-5557.680241,-3037.736252)">
                <path d="M2758.502,1637.78L2774.843,1637.78" style="fill:none;stroke:black;stroke-width:2.41px;"/>
            </g>
        </g>
        <g transform="matrix(1,0,0,1,-1440,-773)">
            <g transform="matrix(2.265595,-0.642117,-0.642117,1.325289,-1805.81509,589.567148)">
                <path d="M1890.502,1381.256L1829,1260" style="fill:none;stroke:black;stroke-width:3.35px;"/>
            </g>
        </g>
        <g transform="matrix(1,0,0,1,-1440,-773)">
            <g transform="matrix(1,0,0,1,-110,30.337763)">
                <g transform="matrix(50,0,0,50,2293.409968,1193.777868)">
                </g>
                <text x="1879.225px" y="1193.778px" style="font-family:'ArialMT', 'Arial', sans-serif;font-size:50px;">RRo 3000x750x15</text>
            </g>
        </g>
        <g transform="matrix(1,0,0,1,-1440,-773)">
            <g transform="matrix(1,0,0,1,-167.139293,-72.840368)">
                <g transform="matrix(50,0,0,50,2198.854303,1193.777868)">
                </g>
                <text x="1879.225px" y="1193.778px" style="font-family:'ArialMT', 'Arial', sans-serif;font-size:50px;">Ausmitte 3000</text>
            </g>
        </g>
        <g transform="matrix(1,0,0,1,-1440,-773)">
            <g transform="matrix(1,0,0,1,-110,123.337763)">
                <g transform="matrix(50,0,0,50,2168.263483,1193.777868)">
                </g>
                <text x="1879.225px" y="1193.778px" style="font-family:'ArialMT', 'Arial', sans-serif;font-size:50px;">ROR 914x30</text>
            </g>
        </g>
        <g transform="matrix(1,0,0,1,-1440,-773)">
            <g transform="matrix(1,0,0,1,-110,225.73541)">
                <g transform="matrix(50,0,0,50,1984.840632,1193.777868)">
                </g>
                <text x="1879.225px" y="1193.778px" style="font-family:'ArialMT', 'Arial', sans-serif;font-size:50px;">R 60</text>
            </g>
        </g>
        <g transform="matrix(1,0,0,1,-1440,-773)">
            <g transform="matrix(1,0,0,1,499.689678,-54.821869)">
                <circle cx="1188" cy="1358" r="22" style="fill:white;stroke:black;stroke-width:6.25px;"/>
            </g>
        </g>
        <g transform="matrix(1,0,0,1,-1440,-773)">
            <g transform="matrix(0.667445,0,0,0.667445,892.449364,495.472248)">
                <circle cx="1188" cy="1358" r="22"/>
            </g>
        </g>
        <g transform="matrix(1,0,0,1,-1440,-773)">
            <path d="M1590.368,1246L1590.368,1085" style="fill:none;stroke:black;stroke-width:2.08px;"/>
        </g>
        <g transform="matrix(1,0,0,1,-1440,-773)">
            <g transform="matrix(1,0,0,1,97.321871,0)">
                <path d="M1590.368,1246L1590.368,1085" style="fill:none;stroke:black;stroke-width:2.08px;"/>
            </g>
        </g>
        <g transform="matrix(1,0,0,1,-1440,-773)">
            <g transform="matrix(1,0,0,1,-256,0)">
                <g opacity="0.43">
                    <g transform="matrix(1,0,0,1,216,0)">
                        <g transform="matrix(1,-0,-0,1,1493.916667,800.040021)">
                            <path d="M2181.235,251.876L2188.266,247.188L2181.235,242.501" style="fill:none;stroke:rgb(242,13,13);stroke-width:3.13px;stroke-linejoin:miter;stroke-miterlimit:10;"/>
                            <path d="M2188.266,247.188L2060.083,247.188" style="fill:none;stroke:rgb(242,13,13);stroke-width:3.13px;"/>
                        </g>
                    </g>
                    <g transform="matrix(1,0,0,1,216,609.608038)">
                        <g transform="matrix(1,-0,-0,1,1493.916667,190.431984)">
                            <path d="M2181.235,861.484L2188.266,856.796L2181.235,852.109" style="fill:none;stroke:rgb(242,13,13);stroke-width:3.13px;stroke-linejoin:miter;stroke-miterlimit:10;"/>
                            <path d="M2188.266,856.796L2060.083,856.796" style="fill:none;stroke:rgb(242,13,13);stroke-width:3.13px;"/>
                        </g>
                    </g>
                    <g transform="matrix(1,0,0,1,216,304.804019)">
                        <g transform="matrix(1,-0,-0,1,1493.916667,495.236002)">
                            <path d="M2181.235,556.68L2188.266,551.992L2181.235,547.305" style="fill:none;stroke:rgb(242,13,13);stroke-width:3.13px;stroke-linejoin:miter;stroke-miterlimit:10;"/>
                            <path d="M2188.266,551.992L2060.083,551.992" style="fill:none;stroke:rgb(242,13,13);stroke-width:3.13px;"/>
                        </g>
                    </g>
                    <g transform="matrix(1,0,0,1,216,914.412056)">
                        <g transform="matrix(1,-0,-0,1,1493.916667,-114.372035)">
                            <path d="M2181.235,1166.288L2188.266,1161.6L2181.235,1156.913" style="fill:none;stroke:rgb(242,13,13);stroke-width:3.13px;stroke-linejoin:miter;stroke-miterlimit:10;"/>
                            <path d="M2188.266,1161.6L2060.083,1161.6" style="fill:none;stroke:rgb(242,13,13);stroke-width:3.13px;"/>
                        </g>
                    </g>
                    <g transform="matrix(1,0,0,1,216,152.402009)">
                        <g transform="matrix(1,-0,-0,1,1493.916667,647.638012)">
                            <path d="M2181.235,404.278L2188.266,399.59L2181.235,394.903" style="fill:none;stroke:rgb(242,13,13);stroke-width:3.13px;stroke-linejoin:miter;stroke-miterlimit:10;"/>
                            <path d="M2188.266,399.59L2060.083,399.59" style="fill:none;stroke:rgb(242,13,13);stroke-width:3.13px;"/>
                        </g>
                    </g>
                    <g transform="matrix(1,0,0,1,216,762.010047)">
                        <g transform="matrix(1,-0,-0,1,1493.916667,38.029974)">
                            <path d="M2181.235,1013.886L2188.266,1009.198L2181.235,1004.511" style="fill:none;stroke:rgb(242,13,13);stroke-width:3.13px;stroke-linejoin:miter;stroke-miterlimit:10;"/>
                            <path d="M2188.266,1009.198L2060.083,1009.198" style="fill:none;stroke:rgb(242,13,13);stroke-width:3.13px;"/>
                        </g>
                    </g>
                    <g transform="matrix(1,0,0,1,216,457.206028)">
                        <g transform="matrix(1,-0,-0,1,1493.916667,342.833993)">
                            <path d="M2181.235,709.082L2188.266,704.394L2181.235,699.707" style="fill:none;stroke:rgb(242,13,13);stroke-width:3.13px;stroke-linejoin:miter;stroke-miterlimit:10;"/>
                            <path d="M2188.266,704.394L2060.083,704.394" style="fill:none;stroke:rgb(242,13,13);stroke-width:3.13px;"/>
                        </g>
                    </g>
                    <g transform="matrix(1,0,0,1,216,1066.814066)">
                        <g transform="matrix(1,-0,-0,1,1493.916667,-266.774044)">
                            <path d="M2181.235,1318.69L2188.266,1314.002L2181.235,1309.315" style="fill:none;stroke:rgb(242,13,13);stroke-width:3.13px;stroke-linejoin:miter;stroke-miterlimit:10;"/>
                            <path d="M2188.266,1314.002L2060.083,1314.002" style="fill:none;stroke:rgb(242,13,13);stroke-width:3.13px;"/>
                        </g>
                    </g>
                    <g transform="matrix(1,0,0,1,216,76.201005)">
                        <g transform="matrix(1,-0,-0,1,1493.916667,723.839017)">
                            <path d="M2181.235,328.077L2188.266,323.389L2181.235,318.702" style="fill:none;stroke:rgb(242,13,13);stroke-width:3.13px;stroke-linejoin:miter;stroke-miterlimit:10;"/>
                            <path d="M2188.266,323.389L2060.083,323.389" style="fill:none;stroke:rgb(242,13,13);stroke-width:3.13px;"/>
                        </g>
                    </g>
                    <g transform="matrix(1,0,0,1,216,685.809042)">
                        <g transform="matrix(1,-0,-0,1,1493.916667,114.230979)">
                            <path d="M2181.235,937.685L2188.266,932.997L2181.235,928.31" style="fill:none;stroke:rgb(242,13,13);stroke-width:3.13px;stroke-linejoin:miter;stroke-miterlimit:10;"/>
                            <path d="M2188.266,932.997L2060.083,932.997" style="fill:none;stroke:rgb(242,13,13);stroke-width:3.13px;"/>
                        </g>
                    </g>
                    <g transform="matrix(1,0,0,1,216,381.005023)">
                        <g transform="matrix(1,-0,-0,1,1493.916667,419.034998)">
                            <path d="M2181.235,632.881L2188.266,628.193L2181.235,623.506" style="fill:none;stroke:rgb(242,13,13);stroke-width:3.13px;stroke-linejoin:miter;stroke-miterlimit:10;"/>
                            <path d="M2188.266,628.193L2060.083,628.193" style="fill:none;stroke:rgb(242,13,13);stroke-width:3.13px;"/>
                        </g>
                    </g>
                    <g transform="matrix(1,0,0,1,216,990.613061)">
                        <g transform="matrix(1,-0,-0,1,1493.916667,-190.57304)">
                            <path d="M2181.235,1242.489L2188.266,1237.801L2181.235,1233.114" style="fill:none;stroke:rgb(242,13,13);stroke-width:3.13px;stroke-linejoin:miter;stroke-miterlimit:10;"/>
                            <path d="M2188.266,1237.801L2060.083,1237.801" style="fill:none;stroke:rgb(242,13,13);stroke-width:3.13px;"/>
                        </g>
                    </g>
                    <g transform="matrix(1,0,0,1,216,228.603014)">
                        <g transform="matrix(1,-0,-0,1,1493.916667,571.437007)">
                            <path d="M2181.235,480.479L2188.266,475.791L2181.235,471.104" style="fill:none;stroke:rgb(242,13,13);stroke-width:3.13px;stroke-linejoin:miter;stroke-miterlimit:10;"/>
                            <path d="M2188.266,475.791L2060.083,475.791" style="fill:none;stroke:rgb(242,13,13);stroke-width:3.13px;"/>
                        </g>
                    </g>
                    <g transform="matrix(1,0,0,1,216,838.211052)">
                        <g transform="matrix(1,-0,-0,1,1493.916667,-38.17103)">
                            <path d="M2181.235,1090.087L2188.266,1085.399L2181.235,1080.712" style="fill:none;stroke:rgb(242,13,13);stroke-width:3.13px;stroke-linejoin:miter;stroke-miterlimit:10;"/>
                            <path d="M2188.266,1085.399L2060.083,1085.399" style="fill:none;stroke:rgb(242,13,13);stroke-width:3.13px;"/>
                        </g>
                    </g>
                    <g transform="matrix(1,0,0,1,216,533.407033)">
                        <g transform="matrix(1,-0,-0,1,1493.916667,266.632988)">
                            <path d="M2181.235,785.283L2188.266,780.595L2181.235,775.908" style="fill:none;stroke:rgb(242,13,13);stroke-width:3.13px;stroke-linejoin:miter;stroke-miterlimit:10;"/>
                            <path d="M2188.266,780.595L2060.083,780.595" style="fill:none;stroke:rgb(242,13,13);stroke-width:3.13px;"/>
                        </g>
                    </g>
                    <g transform="matrix(1,0,0,1,216,1143.01507)">
                        <g transform="matrix(1,-0,-0,1,1493.916667,-342.975049)">
                            <path d="M2181.235,1394.891L2188.266,1390.203L2181.235,1385.516" style="fill:none;stroke:rgb(242,13,13);stroke-width:3.13px;stroke-linejoin:miter;stroke-miterlimit:10;"/>
                            <path d="M2188.266,1390.203L2060.083,1390.203" style="fill:none;stroke:rgb(242,13,13);stroke-width:3.13px;"/>
                        </g>
                    </g>
                    <g transform="matrix(1,0,0,1,216,38.100502)">
                        <g transform="matrix(1,-0,-0,1,1493.916667,761.939519)">
                            <path d="M2181.235,289.976L2188.266,285.289L2181.235,280.601" style="fill:none;stroke:rgb(242,13,13);stroke-width:3.13px;stroke-linejoin:miter;stroke-miterlimit:10;"/>
                            <path d="M2188.266,285.289L2060.083,285.289" style="fill:none;stroke:rgb(242,13,13);stroke-width:3.13px;"/>
                        </g>
                    </g>
                    <g transform="matrix(1,0,0,1,216,647.70854)">
                        <g transform="matrix(1,-0,-0,1,1493.916667,152.331481)">
                            <path d="M2181.235,899.584L2188.266,894.897L2181.235,890.209" style="fill:none;stroke:rgb(242,13,13);stroke-width:3.13px;stroke-linejoin:miter;stroke-miterlimit:10;"/>
                            <path d="M2188.266,894.897L2060.083,894.897" style="fill:none;stroke:rgb(242,13,13);stroke-width:3.13px;"/>
                        </g>
                    </g>
                    <g transform="matrix(1,0,0,1,216,342.904521)">
                        <g transform="matrix(1,-0,-0,1,1493.916667,457.1355)">
                            <path d="M2181.235,594.78L2188.266,590.093L2181.235,585.405" style="fill:none;stroke:rgb(242,13,13);stroke-width:3.13px;stroke-linejoin:miter;stroke-miterlimit:10;"/>
                            <path d="M2188.266,590.093L2060.083,590.093" style="fill:none;stroke:rgb(242,13,13);stroke-width:3.13px;"/>
                        </g>
                    </g>
                    <g transform="matrix(1,0,0,1,216,952.512559)">
                        <g transform="matrix(1,-0,-0,1,1493.916667,-152.472537)">
                            <path d="M2181.235,1204.388L2188.266,1199.701L2181.235,1195.013" style="fill:none;stroke:rgb(242,13,13);stroke-width:3.13px;stroke-linejoin:miter;stroke-miterlimit:10;"/>
                            <path d="M2188.266,1199.701L2060.083,1199.701" style="fill:none;stroke:rgb(242,13,13);stroke-width:3.13px;"/>
                        </g>
                    </g>
                    <g transform="matrix(1,0,0,1,216,190.502512)">
                        <g transform="matrix(1,-0,-0,1,1493.916667,609.537509)">
                            <path d="M2181.235,442.378L2188.266,437.691L2181.235,433.003" style="fill:none;stroke:rgb(242,13,13);stroke-width:3.13px;stroke-linejoin:miter;stroke-miterlimit:10;"/>
                            <path d="M2188.266,437.691L2060.083,437.691" style="fill:none;stroke:rgb(242,13,13);stroke-width:3.13px;"/>
                        </g>
                    </g>
                    <g transform="matrix(1,0,0,1,216,800.110549)">
                        <g transform="matrix(1,-0,-0,1,1493.916667,-0.070528)">
                            <path d="M2181.235,1051.986L2188.266,1047.299L2181.235,1042.611" style="fill:none;stroke:rgb(242,13,13);stroke-width:3.13px;stroke-linejoin:miter;stroke-miterlimit:10;"/>
                            <path d="M2188.266,1047.299L2060.083,1047.299" style="fill:none;stroke:rgb(242,13,13);stroke-width:3.13px;"/>
                        </g>
                    </g>
                    <g transform="matrix(1,0,0,1,216,495.30653)">
                        <g transform="matrix(1,-0,-0,1,1493.916667,304.733491)">
                            <path d="M2181.235,747.182L2188.266,742.495L2181.235,737.807" style="fill:none;stroke:rgb(242,13,13);stroke-width:3.13px;stroke-linejoin:miter;stroke-miterlimit:10;"/>
                            <path d="M2188.266,742.495L2060.083,742.495" style="fill:none;stroke:rgb(242,13,13);stroke-width:3.13px;"/>
                        </g>
                    </g>
                    <g transform="matrix(1,0,0,1,216,1104.914568)">
                        <g transform="matrix(1,-0,-0,1,1493.916667,-304.874547)">
                            <path d="M2181.235,1356.79L2188.266,1352.103L2181.235,1347.415" style="fill:none;stroke:rgb(242,13,13);stroke-width:3.13px;stroke-linejoin:miter;stroke-miterlimit:10;"/>
                            <path d="M2188.266,1352.103L2060.083,1352.103" style="fill:none;stroke:rgb(242,13,13);stroke-width:3.13px;"/>
                        </g>
                    </g>
                    <g transform="matrix(1,0,0,1,216,114.301507)">
                        <g transform="matrix(1,-0,-0,1,1493.916667,685.738514)">
                            <path d="M2181.235,366.177L2188.266,361.49L2181.235,356.802" style="fill:none;stroke:rgb(242,13,13);stroke-width:3.13px;stroke-linejoin:miter;stroke-miterlimit:10;"/>
                            <path d="M2188.266,361.49L2060.083,361.49" style="fill:none;stroke:rgb(242,13,13);stroke-width:3.13px;"/>
                        </g>
                    </g>
                    <g transform="matrix(1,0,0,1,216,723.909545)">
                        <g transform="matrix(1,-0,-0,1,1493.916667,76.130477)">
                            <path d="M2181.235,975.785L2188.266,971.098L2181.235,966.41" style="fill:none;stroke:rgb(242,13,13);stroke-width:3.13px;stroke-linejoin:miter;stroke-miterlimit:10;"/>
                            <path d="M2188.266,971.098L2060.083,971.098" style="fill:none;stroke:rgb(242,13,13);stroke-width:3.13px;"/>
                        </g>
                    </g>
                    <g transform="matrix(1,0,0,1,216,419.105526)">
                        <g transform="matrix(1,-0,-0,1,1493.916667,380.934495)">
                            <path d="M2181.235,670.981L2188.266,666.294L2181.235,661.606" style="fill:none;stroke:rgb(242,13,13);stroke-width:3.13px;stroke-linejoin:miter;stroke-miterlimit:10;"/>
                            <path d="M2188.266,666.294L2060.083,666.294" style="fill:none;stroke:rgb(242,13,13);stroke-width:3.13px;"/>
                        </g>
                    </g>
                    <g transform="matrix(1,0,0,1,216,1028.713563)">
                        <g transform="matrix(1,-0,-0,1,1493.916667,-228.673542)">
                            <path d="M2181.235,1280.589L2188.266,1275.902L2181.235,1271.214" style="fill:none;stroke:rgb(242,13,13);stroke-width:3.13px;stroke-linejoin:miter;stroke-miterlimit:10;"/>
                            <path d="M2188.266,1275.902L2060.083,1275.902" style="fill:none;stroke:rgb(242,13,13);stroke-width:3.13px;"/>
                        </g>
                    </g>
                    <g transform="matrix(1,0,0,1,216,266.703516)">
                        <g transform="matrix(1,-0,-0,1,1493.916667,533.336505)">
                            <path d="M2181.235,518.579L2188.266,513.892L2181.235,509.204" style="fill:none;stroke:rgb(242,13,13);stroke-width:3.13px;stroke-linejoin:miter;stroke-miterlimit:10;"/>
                            <path d="M2188.266,513.892L2060.083,513.892" style="fill:none;stroke:rgb(242,13,13);stroke-width:3.13px;"/>
                        </g>
                    </g>
                    <g transform="matrix(1,0,0,1,216,876.311554)">
                        <g transform="matrix(1,-0,-0,1,1493.916667,-76.271533)">
                            <path d="M2181.235,1128.187L2188.266,1123.5L2181.235,1118.812" style="fill:none;stroke:rgb(242,13,13);stroke-width:3.13px;stroke-linejoin:miter;stroke-miterlimit:10;"/>
                            <path d="M2188.266,1123.5L2060.083,1123.5" style="fill:none;stroke:rgb(242,13,13);stroke-width:3.13px;"/>
                        </g>
                    </g>
                    <g transform="matrix(1,0,0,1,216,571.507535)">
                        <g transform="matrix(1,-0,-0,1,1493.916667,228.532486)">
                            <path d="M2181.235,823.383L2188.266,818.696L2181.235,814.008" style="fill:none;stroke:rgb(242,13,13);stroke-width:3.13px;stroke-linejoin:miter;stroke-miterlimit:10;"/>
                            <path d="M2188.266,818.696L2060.083,818.696" style="fill:none;stroke:rgb(242,13,13);stroke-width:3.13px;"/>
                        </g>
                    </g>
                    <g transform="matrix(1,0,0,1,216,1181.115573)">
                        <g transform="matrix(1,-0,-0,1,1493.916667,-381.075552)">
                            <path d="M2181.235,1432.991L2188.266,1428.304L2181.235,1423.616" style="fill:none;stroke:rgb(242,13,13);stroke-width:3.13px;stroke-linejoin:miter;stroke-miterlimit:10;"/>
                            <path d="M2188.266,1428.304L2060.083,1428.304" style="fill:none;stroke:rgb(242,13,13);stroke-width:3.13px;"/>
                        </g>
                    </g>
                </g>
            </g>
        </g>
    </g>
</svg>
